<svg xmlns="http://www.w3.org/2000/svg" viewBox="0 0 1200 630" width="1200" height="630">
  <defs>
    <radialGradient id="bg" cx="50%" cy="50%" r="80%">
      <stop offset="0%" stop-color="#131315"/>
      <stop offset="100%" stop-color="#0a0a0c"/>
    </radialGradient>
    <linearGradient id="title" x1="0" x2="1">
      <stop offset="0%" stop-color="#ece9e2"/>
      <stop offset="100%" stop-color="#c8c5be"/>
    </linearGradient>
  </defs>
  <rect width="1200" height="630" fill="url(#bg)"/>

  <!-- Clock -->
  <g transform="translate(380 315)">
    <circle r="220" fill="#131315" stroke="#2a2a2c" stroke-width="1"/>
    <circle r="210" fill="none" stroke="#1c1c1e" stroke-width="1"/>
    <!-- ticks -->
    <g stroke="#ece9e2" stroke-linecap="round">
      <g>
        <line x1="0" y1="-200" x2="0" y2="-185" stroke-width="3"/>
        <line x1="0" y1="200"  x2="0" y2="185"  stroke-width="3"/>
        <line x1="-200" y1="0" x2="-185" y2="0" stroke-width="3"/>
        <line x1="200" y1="0"  x2="185" y2="0"  stroke-width="3"/>
      </g>
      <g transform="rotate(30)"><line x1="0" y1="-200" x2="0" y2="-185" stroke-width="3"/></g>
      <g transform="rotate(60)"><line x1="0" y1="-200" x2="0" y2="-185" stroke-width="3"/></g>
      <g transform="rotate(120)"><line x1="0" y1="-200" x2="0" y2="-185" stroke-width="3"/></g>
      <g transform="rotate(150)"><line x1="0" y1="-200" x2="0" y2="-185" stroke-width="3"/></g>
      <g transform="rotate(210)"><line x1="0" y1="-200" x2="0" y2="-185" stroke-width="3"/></g>
      <g transform="rotate(240)"><line x1="0" y1="-200" x2="0" y2="-185" stroke-width="3"/></g>
      <g transform="rotate(300)"><line x1="0" y1="-200" x2="0" y2="-185" stroke-width="3"/></g>
      <g transform="rotate(330)"><line x1="0" y1="-200" x2="0" y2="-185" stroke-width="3"/></g>
    </g>
    <!-- hour ~ 10:10 -->
    <line x1="0" y1="0" x2="-90" y2="-60" stroke="#ece9e2" stroke-width="7" stroke-linecap="round"/>
    <line x1="0" y1="0" x2="120" y2="-90" stroke="#ece9e2" stroke-width="4" stroke-linecap="round"/>
    <line x1="0" y1="0" x2="40"  y2="-160" stroke="#e0463f" stroke-width="2" stroke-linecap="round"/>
    <circle cx="40" cy="-160" r="0" />
    <circle r="6" fill="#ece9e2"/>
    <circle r="10" fill="none" stroke="#e0463f" stroke-width="2"/>
  </g>

  <!-- Text -->
  <g transform="translate(720 270)">
    <text font-family="'Fraunces',serif" font-weight="500" font-size="78" fill="url(#title)" letter-spacing="-1">Wall Clock</text>
    <text y="56" font-family="'Fraunces',serif" font-style="italic" font-size="28" fill="#8a8784">A beautiful minimalist online clock</text>
    <text y="120" font-family="'JetBrains Mono',monospace" font-size="20" fill="#8a8784" letter-spacing="2">ANALOG · DIGITAL · WORLD TIMEZONES</text>
  </g>
</svg>
